# xmcd
#
# Track frame offsets: 
#        150
#        15342
#        28861
#        46878
#        67525
#        86931
#        103312
#        116330
#        132596
#        149763
#
# Disc length: 2273 seconds
#
# Revision: 0
# Processed by: cddbd v1.5.2PL0 Copyright (c) Steve Scherf et al.
# Submitted via: ExactAudioCopyFreeDBPlugin 1.0
#
DISCID=8908df0a
DTITLE=Sarah Lupo - Sarah Lupo
DYEAR=2012
DGENRE=Country
TTITLE0=Without You
TTITLE1=Just Don't
TTITLE2=James
TTITLE3=Undone
TTITLE4=Him
TTITLE5=True
TTITLE6=Route 6
TTITLE7=Taber
TTITLE8=Dying
TTITLE9=Bittersweet
EXTD=
EXTT0=
EXTT1=
EXTT2=
EXTT3=
EXTT4=
EXTT5=
EXTT6=
EXTT7=
EXTT8=
EXTT9=
PLAYORDER=
